{"title":"Royal Wedding Of William + Kate-Part1 - CBTorrents.com","uid":6354268,"size":2163964799,"categoryP":"video","categoryS":"other","magnet":"?xt=urn:btih:184e86417dfd949863ee4e063ed9b1db2aa56a95&amp;dn=Royal+Wedding+Of+William+%2B+Kate-Part1+-+CBTorrents.com&amp;tr=udp%3A%2F%2Ftracker.openbittorrent.com%3A80&amp;tr=udp%3A%2F%2Fopen.demonii.com%3A1337&amp;tr=udp%3A%2F%2Ftracker.coppersurfer.tk%3A6969&amp;tr=udp%3A%2F%2Fexodus.desync.com%3A6969","seeders":0,"leechers":1,"uploader":"ErSSP","files":2,"time":1304097377,"description":"================= Visit CBTorrents.com For More Exclusives ======================\n\nRemember to signup on CBTorrents.com Its free and give you access to more Exclusives like this.\n\n\nRoyal Wedding Of William + Kate-Part1\n\n &lt;a href=&quot;\nhttp://www.bollywoodreleases.info/images/77673589104108836915.jpg&quot; rel=&quot;nofollow&quot; target=&quot;_NEW&quot;&gt;\nhttp://www.bollywoodreleases.info/images/77673589104108836915.jpg&lt;/a&gt;\n\n\nFormat                           : Matroska\nFile size                        : 2.02 GiB\nDuration                         : 1h 18mn\nOverall bit rate                 : 3 690 Kbps\n\nVideo\nFormat                           : AVC\nFormat/Info                      : Advanced Video Codec\nFormat profile                   : &lt;a class=&quot;__cf_email__&quot; href=&quot;/cdn-cgi/l/email-protection&quot; data-cfemail=&quot;cb83a2aca38b87ffe5fa&quot;&gt;[email&amp;#160;protected]&lt;/a&gt;&lt;script cf-hash='f9e31' type=&quot;text/javascript&quot;&gt;\n/* &lt;![CDATA[ */!function(){try{var t=&quot;currentScript&quot;in document?document.currentScript:function(){for(var t=document.getElementsByTagName(&quot;script&quot;),e=t.length;e--;)if(t[e].getAttribute(&quot;cf-hash&quot;))return t[e]}();if(t&amp;&amp;t.previousSibling){var e,r,n,i,c=t.previousSibling,a=c.getAttribute(&quot;data-cfemail&quot;);if(a){for(e=&quot;&quot;,r=parseInt(a.substr(0,2),16),n=2;a.length-n;n+=2)i=parseInt(a.substr(n,2),16)^r,e+=String.fromCharCode(i);e=document.createTextNode(e),c.parentNode.replaceChild(e,c)}}}catch(u){}}();/* ]]&gt; */&lt;/script&gt;\nFormat settings, CABAC           : No\nFormat settings, ReFrames        : 4 frames\nCodec ID                         : V_MPEG4/ISO/AVC\nDuration                         : 1h 18mn\nBit rate                         : 3 300 Kbps\nWidth                            : 1 280 pixels\nHeight                           : 720 pixels\nDisplay aspect ratio             : 16:9\nFrame rate                       : 25.000 fps\nColor space                      : YUV\nChroma subsampling               : 4:2:0\nBit depth                        : 8 bits\nScan type                        : Progressive\nBits/(Pixel*Frame)               : 0.143\nStream size                      : 1.77 GiB (88%)\nWriting library                  : x264 core 114 r1924 08d04a4\n\nAudio\nFormat                           : AC-3\nFormat/Info                      : Audio Coding 3\nMode extension                   : CM (complete main)\nCodec ID                         : A_AC3\nDuration                         : 1h 18mn\nBit rate mode                    : Constant\nBit rate                         : 384 Kbps\nChannel(s)                       : 6 channels\nChannel positions                : Front: L C R, Side: L R, LFE\nSampling rate                    : 48.0 KHz\nBit depth                        : 16 bits\nCompression mode                 : Lossy\nDelay relative to video          : 32ms\nStream size                      : 215 MiB (10%)\n\n\nScreens: &lt;a href=&quot;\nhttp://www.bollywoodreleases.info/images/06368918985355735672.jpg&quot; rel=&quot;nofollow&quot; target=&quot;_NEW&quot;&gt;\nhttp://www.bollywoodreleases.info/images/06368918985355735672.jpg&lt;/a&gt; &lt;a href=&quot;\nhttp://www.bollywoodreleases.info/images/11807935735578946767.jpg&quot; rel=&quot;nofollow&quot; target=&quot;_NEW&quot;&gt;\nhttp://www.bollywoodreleases.info/images/11807935735578946767.jpg&lt;/a&gt; &lt;a href=&quot;\nhttp://www.bollywoodreleases.info/images/74257234874349514134.jpg&quot; rel=&quot;nofollow&quot; target=&quot;_NEW&quot;&gt;\nhttp://www.bollywoodreleases.info/images/74257234874349514134.jpg&lt;/a&gt; &lt;a href=&quot;\nhttp://www.bollywoodreleases.info/images/85229539082070549318.jpg&quot; rel=&quot;nofollow&quot; target=&quot;_NEW&quot;&gt;\nhttp://www.bollywoodreleases.info/images/85229539082070549318.jpg&lt;/a&gt; &lt;a href=&quot;\nhttp://www.bollywoodreleases.info/images/95898359773719474075.jpg&quot; rel=&quot;nofollow&quot; target=&quot;_NEW&quot;&gt;\nhttp://www.bollywoodreleases.info/images/95898359773719474075.jpg&lt;/a&gt;\n\nCredit to original Ripper\n\n\n\nRemember to signup on CBTorrents.com Its free and give you access to more Exclusives like this.\n\n================= Visit CBTorrents.com For More Exclusives ==================","torrent":{"xt":"urn:btih:184e86417dfd949863ee4e063ed9b1db2aa56a95","amp;dn":"Royal+Wedding+Of+William+%2B+Kate-Part1+-+CBTorrents.com","amp;tr":["udp%3A%2F%2Ftracker.openbittorrent.com%3A80","udp%3A%2F%2Fopen.demonii.com%3A1337","udp%3A%2F%2Ftracker.coppersurfer.tk%3A6969","udp%3A%2F%2Fexodus.desync.com%3A6969"],"infoHash":"184e86417dfd949863ee4e063ed9b1db2aa56a95","infoHashBuffer":{"type":"Buffer","data":[24,78,134,65,125,253,148,152,99,238,78,6,62,217,177,219,42,165,106,149]},"announce":[],"urlList":[]}}